<svg viewBox="0 0 200 200" xmlns="http://www.w3.org/2000/svg">
  <!-- Head background -->
  <circle cx="100" cy="100" r="95" fill="#F0E6D8"/>

  <!-- Dark hair -->
  <path d="M 35 95 Q 25 55 100 32 Q 175 55 165 95 Q 165 82 160 72 Q 100 48 40 72 Q 35 82 35 95 Z" fill="#1F1410"/>

  <!-- Hair shine subtle -->
  <ellipse cx="100" cy="50" rx="35" ry="20" fill="#3D2817" opacity="0.5"/>

  <!-- Face -->
  <ellipse cx="100" cy="100" rx="49" ry="54" fill="#F0E6D8"/>

  <!-- Ears -->
  <ellipse cx="51" cy="98" rx="11" ry="17" fill="#E5D5C5"/>
  <ellipse cx="149" cy="98" rx="11" ry="17" fill="#E5D5C5"/>

  <!-- Intense eyes -->
  <circle cx="80" cy="91" r="6.5" fill="#2D1F10"/>
  <circle cx="120" cy="91" r="6.5" fill="#2D1F10"/>

  <!-- Eye shine small intense -->
  <circle cx="81" cy="88" r="2" fill="white"/>
  <circle cx="121" cy="88" r="2" fill="white"/>

  <!-- Serious eyebrows -->
  <path d="M 68 77 Q 80 73 92 77" stroke="#1F1410" stroke-width="2.3" fill="none" stroke-linecap="round"/>
  <path d="M 108 77 Q 120 73 132 77" stroke="#1F1410" stroke-width="2.3" fill="none" stroke-linecap="round"/>

  <!-- Thoughtful expression lines -->
  <path d="M 75 78 L 75 82" stroke="#D4BFAD" stroke-width="1" opacity="0.5"/>
  <path d="M 125 78 L 125 82" stroke="#D4BFAD" stroke-width="1" opacity="0.5"/>

  <!-- Nose sharp -->
  <path d="M 100 91 L 100 117" stroke="#D9C8B8" stroke-width="2" fill="none" stroke-linecap="round"/>
  <path d="M 96 119 L 104 119" stroke="#D9C8B8" stroke-width="1.5" fill="none" stroke-linecap="round"/>

  <!-- Neutral mouth -->
  <path d="M 80 138 Q 100 145 120 138" stroke="#B89080" stroke-width="2" fill="none" stroke-linecap="round"/>

  <!-- Subtle cheeks -->
  <ellipse cx="60" cy="108" rx="9" ry="6" fill="#D9B8A3" opacity="0.3"/>
  <ellipse cx="140" cy="108" rx="9" ry="6" fill="#D9B8A3" opacity="0.3"/>

  <!-- Chin definition -->
  <ellipse cx="100" cy="145" rx="35" ry="12" fill="#E5D5C5" opacity="0.3"/>
</svg>
