<svg viewBox="0 0 200 200" xmlns="http://www.w3.org/2000/svg">
  <!-- Head background -->
  <circle cx="100" cy="100" r="95" fill="#F5E6D3"/>

  <!-- Hair -->
  <path d="M 40 100 Q 30 60 100 30 Q 170 60 160 100 Q 160 85 155 75 Q 100 50 45 75 Q 40 85 40 100 Z" fill="#6B4423"/>

  <!-- Hair shine -->
  <ellipse cx="70" cy="55" rx="15" ry="20" fill="#8B5A3C" opacity="0.6"/>

  <!-- Face -->
  <ellipse cx="100" cy="100" rx="50" ry="55" fill="#F5E6D3"/>

  <!-- Ears -->
  <ellipse cx="50" cy="95" rx="12" ry="18" fill="#E8D4BE"/>
  <ellipse cx="150" cy="95" rx="12" ry="18" fill="#E8D4BE"/>

  <!-- Eyes -->
  <circle cx="82" cy="90" r="6" fill="#3D2817"/>
  <circle cx="118" cy="90" r="6" fill="#3D2817"/>

  <!-- Eye shine -->
  <circle cx="83" cy="88" r="2.5" fill="white"/>
  <circle cx="119" cy="88" r="2.5" fill="white"/>

  <!-- Eyebrows -->
  <path d="M 70 78 Q 82 74 94 78" stroke="#5A3B1F" stroke-width="2" fill="none" stroke-linecap="round"/>
  <path d="M 106 78 Q 118 74 130 78" stroke="#5A3B1F" stroke-width="2" fill="none" stroke-linecap="round"/>

  <!-- Nose -->
  <path d="M 100 90 L 100 115" stroke="#D4B5A0" stroke-width="2" fill="none" stroke-linecap="round"/>
  <ellipse cx="96" cy="118" rx="3" ry="4" fill="#D4B5A0"/>
  <ellipse cx="104" cy="118" rx="3" ry="4" fill="#D4B5A0"/>

  <!-- Mouth -->
  <path d="M 80 135 Q 100 148 120 135" stroke="#C17A5C" stroke-width="2.5" fill="none" stroke-linecap="round"/>

  <!-- Cheeks -->
  <ellipse cx="65" cy="110" rx="8" ry="6" fill="#E8A89C" opacity="0.5"/>
  <ellipse cx="135" cy="110" rx="8" ry="6" fill="#E8A89C" opacity="0.5"/>
</svg>
