<svg viewBox="0 0 200 200" xmlns="http://www.w3.org/2000/svg">
  <!-- Head background -->
  <circle cx="100" cy="100" r="95" fill="#FFDCC4"/>

  <!-- Long flowing hair -->
  <path d="M 30 90 Q 20 50 100 30 Q 180 50 170 90" fill="#B8872D"/>

  <!-- Hair sides long -->
  <path d="M 32 98 Q 28 140 35 170 Q 38 175 42 170 Q 38 135 42 100" fill="#B8872D"/>
  <path d="M 168 98 Q 172 140 165 170 Q 162 175 158 170 Q 162 135 158 100" fill="#B8872D"/>

  <!-- Hair shine -->
  <ellipse cx="70" cy="55" rx="20" ry="28" fill="#D4A644" opacity="0.6"/>
  <ellipse cx="130" cy="55" rx="20" ry="28" fill="#D4A644" opacity="0.6"/>

  <!-- Face warm tone -->
  <ellipse cx="100" cy="100" rx="48" ry="53" fill="#FFDCC4"/>

  <!-- Ears -->
  <ellipse cx="52" cy="98" rx="11" ry="18" fill="#F5C5AD"/>
  <ellipse cx="148" cy="98" rx="11" ry="18" fill="#F5C5AD"/>

  <!-- Warm friendly eyes -->
  <circle cx="80" cy="90" r="6.5" fill="#4D3A25"/>
  <circle cx="120" cy="90" r="6.5" fill="#4D3A25"/>

  <!-- Warm eye shine -->
  <circle cx="81" cy="87" r="2.5" fill="white"/>
  <circle cx="121" cy="87" r="2.5" fill="white"/>

  <!-- Friendly curved eyebrows -->
  <path d="M 68 76 Q 80 71 92 76" stroke="#8B6914" stroke-width="2.2" fill="none" stroke-linecap="round"/>
  <path d="M 108 76 Q 120 71 132 76" stroke="#8B6914" stroke-width="2.2" fill="none" stroke-linecap="round"/>

  <!-- Soft nose -->
  <path d="M 100 90 L 100 116" stroke="#E5C9B5" stroke-width="1.8" fill="none" stroke-linecap="round"/>

  <!-- Warm smile -->
  <path d="M 75 140 Q 100 153 125 140" stroke="#D97777" stroke-width="2.5" fill="none" stroke-linecap="round"/>

  <!-- Rosy warm cheeks -->
  <ellipse cx="58" cy="108" rx="11" ry="8" fill="#F4A89F" opacity="0.7"/>
  <ellipse cx="142" cy="108" rx="11" ry="8" fill="#F4A89F" opacity="0.7"/>

  <!-- Soft face contour -->
  <ellipse cx="100" cy="155" rx="40" ry="15" fill="#F5CEBD" opacity="0.4"/>
</svg>
