<svg viewBox="0 0 200 200" xmlns="http://www.w3.org/2000/svg">
  <!-- Head background -->
  <circle cx="100" cy="100" r="95" fill="#EBE1D7"/>

  <!-- Neat dark hair -->
  <path d="M 40 92 Q 32 58 100 35 Q 168 58 160 92 Q 160 80 157 70 Q 100 48 43 70 Q 40 80 40 92 Z" fill="#1A1410"/>

  <!-- Hair shine minimal professional -->
  <ellipse cx="100" cy="50" rx="32" ry="18" fill="#3D2817" opacity="0.4"/>

  <!-- Face -->
  <ellipse cx="100" cy="100" rx="49" ry="54" fill="#EBE1D7"/>

  <!-- Ears -->
  <ellipse cx="51" cy="98" rx="10.5" ry="17" fill="#DDD0C5"/>
  <ellipse cx="149" cy="98" rx="10.5" ry="17" fill="#DDD0C5"/>

  <!-- Intelligent focused eyes -->
  <circle cx="80" cy="91" r="6.2" fill="#2A1F15"/>
  <circle cx="120" cy="91" r="6.2" fill="#2A1F15"/>

  <!-- Sharp eye shine -->
  <circle cx="81" cy="88" r="2.2" fill="white"/>
  <circle cx="121" cy="88" r="2.2" fill="white"/>

  <!-- Professional straight eyebrows -->
  <path d="M 70 78 Q 80 75 90 78" stroke="#1A1410" stroke-width="2.1" fill="none" stroke-linecap="round"/>
  <path d="M 110 78 Q 120 75 130 78" stroke="#1A1410" stroke-width="2.1" fill="none" stroke-linecap="round"/>

  <!-- Defined nose -->
  <path d="M 100 91 L 100 116" stroke="#D4BEA8" stroke-width="2" fill="none" stroke-linecap="round"/>
  <circle cx="98" cy="119" r="2" fill="#D4BEA8"/>
  <circle cx="102" cy="119" r="2" fill="#D4BEA8"/>

  <!-- Thin line mouth -->
  <path d="M 82 138 Q 100 144 118 138" stroke="#B59480" stroke-width="1.8" fill="none" stroke-linecap="round"/>

  <!-- Minimal blush professional -->
  <ellipse cx="62" cy="107" rx="8" ry="5" fill="#D4B8A3" opacity="0.25"/>
  <ellipse cx="138" cy="107" rx="8" ry="5" fill="#D4B8A3" opacity="0.25"/>

  <!-- Jawline definition -->
  <path d="M 55 130 Q 100 150 145 130" stroke="#DDD0C5" stroke-width="1.5" opacity="0.5" fill="none"/>
</svg>
